TITLE ""
FILE "Disc3Track42.mp3" MP3
  TRACK 01 AUDIO
    TITLE "Disc3Track42_01"
    INDEX 01 00:00:00
  TRACK 02 AUDIO
    TITLE "Disc3Track42_02"
    INDEX 01 00:01:12
  TRACK 03 AUDIO
    TITLE "Disc3Track42_03"
    INDEX 01 00:02:39
  TRACK 04 AUDIO
    TITLE "Disc3Track42_04"
    INDEX 01 00:03:60
  TRACK 05 AUDIO
    TITLE "Disc3Track42_05"
    INDEX 01 00:05:45
  TRACK 06 AUDIO
    TITLE "Disc3Track42_06"
    INDEX 01 00:06:01
  TRACK 07 AUDIO
    TITLE "Disc3Track42_07"
    INDEX 01 00:07:34
  TRACK 08 AUDIO
    TITLE "Disc3Track42_08"
    INDEX 01 00:08:67
  TRACK 09 AUDIO
    TITLE "Disc3Track42_09"
    INDEX 01 00:10:22
  TRACK 10 AUDIO
    TITLE "Disc3Track42_10"
    INDEX 01 00:13:72
  TRACK 11 AUDIO
    TITLE "Disc3Track42_11"
    INDEX 01 00:14:28
  TRACK 12 AUDIO
    TITLE "Disc3Track42_12"
    INDEX 01 00:15:65
  TRACK 13 AUDIO
    TITLE "Disc3Track42_13"
    INDEX 01 00:16:68
  TRACK 14 AUDIO
    TITLE "Disc3Track42_14"
    INDEX 01 00:18:30
  TRACK 15 AUDIO
    TITLE "Disc3Track42_15"
    INDEX 01 00:20:27
  TRACK 16 AUDIO
    TITLE "Disc3Track42_16"
    INDEX 01 00:20:58
  TRACK 17 AUDIO
    TITLE "Disc3Track42_17"
    INDEX 01 00:22:10
  TRACK 18 AUDIO
    TITLE "Disc3Track42_18"
    INDEX 01 00:24:19
  TRACK 19 AUDIO
    TITLE "Disc3Track42_19"
    INDEX 01 00:25:46
  TRACK 20 AUDIO
    TITLE "Disc3Track42_20"
    INDEX 01 00:28:18
  TRACK 21 AUDIO
    TITLE "Disc3Track42_21"
    INDEX 01 00:28:50
  TRACK 22 AUDIO
    TITLE "Disc3Track42_22"
    INDEX 01 00:30:07
  TRACK 23 AUDIO
    TITLE "Disc3Track42_23"
    INDEX 01 00:31:28
  TRACK 24 AUDIO
    TITLE "Disc3Track42_24"
    INDEX 01 00:32:59
  TRACK 25 AUDIO
    TITLE "Disc3Track42_25"
    INDEX 01 00:37:02
  TRACK 26 AUDIO
    TITLE "Disc3Track42_26"
    INDEX 01 00:37:33
  TRACK 27 AUDIO
    TITLE "Disc3Track42_27"
    INDEX 01 00:38:62
  TRACK 28 AUDIO
    TITLE "Disc3Track42_28"
    INDEX 01 00:39:65
  TRACK 29 AUDIO
    TITLE "Disc3Track42_29"
    INDEX 01 00:41:21
  TRACK 30 AUDIO
    TITLE "Disc3Track42_30"
    INDEX 01 00:41:58
  TRACK 31 AUDIO
    TITLE "Disc3Track42_31"
    INDEX 01 00:43:02
  TRACK 32 AUDIO
    TITLE "Disc3Track42_32"
    INDEX 01 00:45:07
  TRACK 33 AUDIO
    TITLE "Disc3Track42_33"
    INDEX 01 00:46:24
  TRACK 34 AUDIO
    TITLE "Disc3Track42_34"
    INDEX 01 00:48:17
  TRACK 35 AUDIO
    TITLE "Disc3Track42_35"
    INDEX 01 00:48:49
  TRACK 36 AUDIO
    TITLE "Disc3Track42_36"
    INDEX 01 00:49:73
  TRACK 37 AUDIO
    TITLE "Disc3Track42_37"
    INDEX 01 00:51:04
  TRACK 38 AUDIO
    TITLE "Disc3Track42_38"
    INDEX 01 00:52:29
  TRACK 39 AUDIO
    TITLE "Disc3Track42_39"
    INDEX 01 00:52:70
  TRACK 40 AUDIO
    TITLE "Disc3Track42_40"
    INDEX 01 00:54:24
  TRACK 41 AUDIO
    TITLE "Disc3Track42_41"
    INDEX 01 00:57:53
  TRACK 42 AUDIO
    TITLE "Disc3Track42_42"
    INDEX 01 00:59:05
  TRACK 43 AUDIO
    TITLE "Disc3Track42_43"
    INDEX 01 01:03:46
  TRACK 44 AUDIO
    TITLE "Disc3Track42_44"
    INDEX 01 01:04:02
  TRACK 45 AUDIO
    TITLE "Disc3Track42_45"
    INDEX 01 01:05:43
  TRACK 46 AUDIO
    TITLE "Disc3Track42_46"
    INDEX 01 01:07:32
  TRACK 47 AUDIO
    TITLE "Disc3Track42_47"
    INDEX 01 01:09:00
